<svg xmlns="http://www.w3.org/2000/svg" viewBox="0 0 200 440">
<defs>
  <linearGradient id="liqfclassic" x1="0" y1="0" x2="0" y2="1"><stop offset="0" stop-color="#f8eedb"/><stop offset="1" stop-color="#e2cea6"/></linearGradient>
  <linearGradient id="capfclassic" x1="0" y1="0" x2="1" y2="0"><stop offset="0" stop-color="#8e6b34"/><stop offset=".35" stop-color="#ecd29b"/><stop offset=".7" stop-color="#c39d5c"/><stop offset="1" stop-color="#7c5a28"/></linearGradient>
  <linearGradient id="shinefclassic" x1="0" y1="0" x2="1" y2="0"><stop offset="0" stop-color="#fff" stop-opacity=".0"/><stop offset=".18" stop-color="#fff" stop-opacity=".22"/><stop offset=".3" stop-color="#fff" stop-opacity="0"/><stop offset=".82" stop-color="#fff" stop-opacity="0"/><stop offset=".92" stop-color="#fff" stop-opacity=".14"/><stop offset="1" stop-color="#fff" stop-opacity="0"/></linearGradient>
  <linearGradient id="ovfclassic" x1="0" y1="0" x2="0" y2="1"><stop offset="0" stop-color="#000" stop-opacity=".95"/><stop offset="1" stop-color="#000" stop-opacity="0"/></linearGradient>
  <clipPath id="clipfclassic"><path d="M72,66 L72,118 C72,146 26,150 26,196 L26,392 Q26,420 56,420 L144,420 Q174,420 174,392 L174,196 C174,150 128,146 128,118 L128,66 Z"/></clipPath>
</defs>
<ellipse cx="100" cy="424" rx="72" ry="9" fill="#000" opacity=".45"/>
<path d="M72,66 L72,118 C72,146 26,150 26,196 L26,392 Q26,420 56,420 L144,420 Q174,420 174,392 L174,196 C174,150 128,146 128,118 L128,66 Z" fill="#ffffff" fill-opacity=".05"/>
<g clip-path="url(#clipfclassic)">
  <rect x="0" y="132" width="200" height="340" fill="url(#liqfclassic)"/>
  
  <circle cx="110.7" cy="159.8" r="8.7" fill="#ecdcb9" stroke="#b79a63" stroke-opacity=".5" stroke-width=".8"/><circle cx="108.1" cy="157.2" r="3.0" fill="#fff" opacity=".45"/><circle cx="114.6" cy="380.1" r="5.1" fill="#ecdcb9" stroke="#b79a63" stroke-opacity=".5" stroke-width=".8"/><circle cx="113.1" cy="378.6" r="1.8" fill="#fff" opacity=".45"/><circle cx="72.1" cy="385.5" r="9.0" fill="#ecdcb9" stroke="#b79a63" stroke-opacity=".5" stroke-width=".8"/><circle cx="69.4" cy="382.8" r="3.1" fill="#fff" opacity=".45"/><circle cx="104.8" cy="395.6" r="6.6" fill="#ecdcb9" stroke="#b79a63" stroke-opacity=".5" stroke-width=".8"/><circle cx="102.8" cy="393.6" r="2.3" fill="#fff" opacity=".45"/><circle cx="68.9" cy="161.4" r="8.7" fill="#ecdcb9" stroke="#b79a63" stroke-opacity=".5" stroke-width=".8"/><circle cx="66.3" cy="158.8" r="3.0" fill="#fff" opacity=".45"/><circle cx="128.0" cy="399.5" r="5.3" fill="#ecdcb9" stroke="#b79a63" stroke-opacity=".5" stroke-width=".8"/><circle cx="126.4" cy="397.9" r="1.8" fill="#fff" opacity=".45"/><circle cx="76.9" cy="152.3" r="8.5" fill="#ecdcb9" stroke="#b79a63" stroke-opacity=".5" stroke-width=".8"/><circle cx="74.4" cy="149.8" r="3.0" fill="#fff" opacity=".45"/><circle cx="111.0" cy="407.4" r="6.6" fill="#ecdcb9" stroke="#b79a63" stroke-opacity=".5" stroke-width=".8"/><circle cx="109.0" cy="405.5" r="2.3" fill="#fff" opacity=".45"/><circle cx="87.8" cy="403.6" r="6.8" fill="#ecdcb9" stroke="#b79a63" stroke-opacity=".5" stroke-width=".8"/><circle cx="85.8" cy="401.6" r="2.4" fill="#fff" opacity=".45"/><circle cx="143.9" cy="157.3" r="5.5" fill="#ecdcb9" stroke="#b79a63" stroke-opacity=".5" stroke-width=".8"/><circle cx="142.3" cy="155.6" r="1.9" fill="#fff" opacity=".45"/><circle cx="71.9" cy="200.4" r="8.1" fill="#ecdcb9" stroke="#b79a63" stroke-opacity=".5" stroke-width=".8"/><circle cx="69.5" cy="198.0" r="2.8" fill="#fff" opacity=".45"/><circle cx="90.9" cy="404.7" r="7.3" fill="#ecdcb9" stroke="#b79a63" stroke-opacity=".5" stroke-width=".8"/><circle cx="88.7" cy="402.5" r="2.6" fill="#fff" opacity=".45"/><circle cx="109.8" cy="406.9" r="7.7" fill="#ecdcb9" stroke="#b79a63" stroke-opacity=".5" stroke-width=".8"/><circle cx="107.5" cy="404.6" r="2.7" fill="#fff" opacity=".45"/><circle cx="141.3" cy="224.3" r="7.7" fill="#ecdcb9" stroke="#b79a63" stroke-opacity=".5" stroke-width=".8"/><circle cx="139.0" cy="222.0" r="2.7" fill="#fff" opacity=".45"/><circle cx="123.0" cy="174.5" r="7.2" fill="#ecdcb9" stroke="#b79a63" stroke-opacity=".5" stroke-width=".8"/><circle cx="120.9" cy="172.3" r="2.5" fill="#fff" opacity=".45"/><circle cx="124.8" cy="165.8" r="8.3" fill="#ecdcb9" stroke="#b79a63" stroke-opacity=".5" stroke-width=".8"/><circle cx="122.3" cy="163.3" r="2.9" fill="#fff" opacity=".45"/>
  <rect x="0" y="132" width="200" height="3" fill="#fff" opacity=".35"/>
  <rect x="0" y="0" width="200" height="480" fill="url(#shinefclassic)"/>
</g>
<path d="M72,66 L72,118 C72,146 26,150 26,196 L26,392 Q26,420 56,420 L144,420 Q174,420 174,392 L174,196 C174,150 128,146 128,118 L128,66 Z" fill="none" stroke="#ffffff" stroke-opacity=".3" stroke-width="1.6"/>
<rect x="44" y="232" width="112" height="146" rx="3" fill="#240912" stroke="#b8925a" stroke-width="1.2"/>
<rect x="49" y="237" width="102" height="136" rx="2" fill="none" stroke="#b8925a" stroke-opacity=".55" stroke-width=".7"/>
<g transform="translate(89,245) scale(.22)"><polygon points="78.28,78.28 21.72,78.28 21.72,21.72 78.28,21.72" fill="none" stroke="#e3c88f" stroke-width="3" stroke-linejoin="round"/><polygon points="50.00,90.00 10.00,50.00 50.00,10.00 90.00,50.00" fill="none" stroke="#e3c88f" stroke-width="3" stroke-linejoin="round"/><circle cx="50" cy="50" r="9" fill="#e3c88f"/></g>
<text x="100" y="287" text-anchor="middle" font-family="Georgia, 'Times New Roman', serif" font-size="15" letter-spacing="3.5" fill="#e3c88f">SARAUTA</text>
<line x1="80" y1="298" x2="120" y2="298" stroke="#b8925a" stroke-width=".8"/>
<text x="100" y="319" text-anchor="middle" font-family="Georgia, 'Times New Roman', serif" font-style="italic" font-size="11.5" fill="#f3ead9">Fura</text>
<text x="100" y="334" text-anchor="middle" font-family="Georgia, 'Times New Roman', serif" font-style="italic" font-size="11.5" fill="#f3ead9">Classic</text>
<text x="100" y="362" text-anchor="middle" font-family="Georgia, 'Times New Roman', serif" font-size="7.5" letter-spacing="1.6" fill="#b8925a">350 ML</text>
<rect x="68" y="40" width="64" height="30" rx="5" fill="url(#capfclassic)"/>
<line x1="74" y1="43" x2="74" y2="67" stroke="#4a3210" stroke-opacity=".28" stroke-width="1"/><line x1="79" y1="43" x2="79" y2="67" stroke="#4a3210" stroke-opacity=".28" stroke-width="1"/><line x1="84" y1="43" x2="84" y2="67" stroke="#4a3210" stroke-opacity=".28" stroke-width="1"/><line x1="89" y1="43" x2="89" y2="67" stroke="#4a3210" stroke-opacity=".28" stroke-width="1"/><line x1="94" y1="43" x2="94" y2="67" stroke="#4a3210" stroke-opacity=".28" stroke-width="1"/><line x1="99" y1="43" x2="99" y2="67" stroke="#4a3210" stroke-opacity=".28" stroke-width="1"/><line x1="104" y1="43" x2="104" y2="67" stroke="#4a3210" stroke-opacity=".28" stroke-width="1"/><line x1="109" y1="43" x2="109" y2="67" stroke="#4a3210" stroke-opacity=".28" stroke-width="1"/><line x1="114" y1="43" x2="114" y2="67" stroke="#4a3210" stroke-opacity=".28" stroke-width="1"/><line x1="119" y1="43" x2="119" y2="67" stroke="#4a3210" stroke-opacity=".28" stroke-width="1"/><line x1="124" y1="43" x2="124" y2="67" stroke="#4a3210" stroke-opacity=".28" stroke-width="1"/>
<rect x="68" y="67" width="64" height="3" fill="#5c4118" opacity=".5"/>
<path d="M80,80 L80,120" stroke="#fff" stroke-opacity=".28" stroke-width="3" stroke-linecap="round"/>
<path d="M32,218 L32,162" stroke="#fff" stroke-opacity=".18" stroke-width="5" stroke-linecap="round"/>
</svg>